PathFileType	4	(X/Y/Z)	SUBJ32_0_static_RCNL2025.trc
DataRate	CameraRate	NumFrames	NumMarkers	Units	OrigDataRate	OrigDataStartFrame	OrigNumFrames
100	100	13	25	mm	100	58	114
Frame#	Time	R_Shoulder			L_Shoulder			C7			J_Notch			R_Elbow			L_Elbow			R_Wrist			L_Wrist			R_Asis			L_Asis			Sacral			Thoracic			Sternum			R_Thigh_Lateral			R_Knee_Lateral			R_Shank_Lateral			R_Ankle_Lateral			R_Heel			R_Toe			L_Thigh_Lateral			L_Knee_Lateral			L_Shank_Lateral			L_Ankle_Lateral			L_Heel			L_Toe		
		X1	Y1	Z1	X2	Y2	Z2	X3	Y3	Z3	X4	Y4	Z4	X5	Y5	Z5	X6	Y6	Z6	X7	Y7	Z7	X8	Y8	Z8	X9	Y9	Z9	X10	Y10	Z10	X11	Y11	Z11	X12	Y12	Z12	X13	Y13	Z13	X14	Y14	Z14	X15	Y15	Z15	X16	Y16	Z16	X17	Y17	Z17	X18	Y18	Z18	X19	Y19	Z19	X20	Y20	Z20	X21	Y21	Z21	X22	Y22	Z22	X23	Y23	Z23	X24	Y24	Z24	X25	Y25	Z25
58	0.57000000	-245.479965	1369.648315	-55.920742	-272.992096	1367.542969	-426.166840	-297.633881	1438.241333	-228.924103	-158.263382	1356.589233	-244.872055	-272.435120	1037.710693	52.904774	-305.379730	1050.778931	-528.754517	-201.788261	800.999664	73.170443	-234.936241	806.128662	-574.405731	-152.477798	914.324829	-125.199760	-158.738724	906.137024	-376.795807	-352.173187	953.667358	-242.236679	-368.257599	1203.731567	-234.384979	-70.811020	1133.614746	-248.727905	-269.444855	554.145508	-43.326382	-273.832001	456.150146	-85.347008	-302.825928	301.055756	-12.122928	-311.816040	68.633698	-114.708794	-357.525421	57.059639	-171.453201	-177.969147	49.939884	-132.244141	-265.093353	567.750549	-470.313202	-271.340942	473.125092	-425.158142	-309.648132	254.713043	-460.999207	-324.235962	61.951862	-379.740143	-364.659607	51.289314	-325.485962	-185.052429	40.641850	-380.036743
59	0.58000000	-245.681519	1369.626953	-55.991844	-273.195526	1367.411743	-426.268280	-297.825592	1438.159790	-229.035339	-158.463745	1356.556519	-244.894638	-272.586975	1037.623413	52.644791	-305.685822	1050.592041	-528.477417	-201.867874	800.748718	73.182232	-235.982620	805.472595	-573.813354	-152.622070	914.481323	-125.448532	-158.719925	906.154907	-376.833893	-352.175537	953.709534	-242.224167	-368.295532	1203.684448	-234.476868	-70.963554	1133.625732	-248.766235	-269.534943	554.270630	-43.242054	-273.724640	456.054810	-85.430801	-302.814209	300.992493	-12.178372	-311.763519	68.635773	-114.739861	-357.576172	57.058914	-171.468201	-177.937225	49.963448	-132.289749	-265.046326	567.661499	-470.300446	-271.345032	473.081299	-425.209961	-309.651337	254.724548	-460.992859	-324.221313	61.951565	-379.747650	-364.707642	51.368717	-325.601898	-185.077972	40.608959	-380.023285
60	0.59000000	-245.890793	1369.567261	-55.984077	-273.300079	1367.310425	-426.385040	-298.099579	1438.098022	-229.074905	-158.596481	1356.475220	-244.955688	-272.846771	1037.491089	52.558601	-306.101013	1050.405151	-528.239868	-201.979057	800.853271	72.744247	-235.973259	805.640625	-573.310364	-152.662125	914.826538	-125.740028	-158.790817	906.213562	-376.921173	-352.189423	953.619507	-242.211151	-368.435272	1203.638184	-234.507248	-71.058617	1133.675659	-248.861832	-269.420227	554.204651	-43.241726	-273.563538	456.077545	-85.414818	-302.759521	301.029633	-12.201117	-311.777222	68.660286	-114.717873	-357.519958	57.086052	-171.505493	-177.981949	49.979271	-132.255417	-264.920227	567.691956	-470.419830	-271.260834	473.047455	-425.135559	-309.537079	254.706573	-461.001770	-324.222382	61.955334	-379.737640	-364.699493	51.423370	-325.648346	-185.083237	40.606026	-380.009430
61	0.60000000	-246.066254	1369.570557	-56.071640	-273.427185	1367.238770	-426.419922	-298.246918	1438.039795	-229.192001	-158.710831	1356.431519	-244.984070	-273.116272	1037.431274	52.392700	-306.445221	1050.248169	-528.045776	-202.022743	800.850342	72.507015	-236.559242	805.403900	-572.638763	-152.276321	915.108826	-125.882912	-158.807434	906.217957	-376.932556	-352.140106	953.548035	-242.261414	-368.488556	1203.524048	-234.579376	-71.170403	1133.675171	-248.901871	-269.376923	554.280945	-43.262714	-273.518036	456.130859	-85.392784	-302.716919	301.172455	-12.181290	-311.706116	68.716614	-114.750824	-357.569031	57.098793	-171.477783	-177.966248	50.004852	-132.227219	-264.861664	567.693237	-470.445648	-271.180298	473.099731	-425.196014	-309.532776	254.647949	-461.055542	-324.151215	61.906853	-379.790253	-364.696747	51.423847	-325.647736	-185.011398	40.652706	-379.986572
62	0.61000000	-246.222183	1369.524414	-56.113522	-273.497742	1367.080688	-426.556946	-298.402985	1437.975708	-229.352859	-158.684692	1356.358154	-245.088959	-273.315338	1037.323242	52.242928	-306.766388	1050.013916	-527.824036	-202.055542	800.760193	72.283255	-237.034386	805.192169	-572.074127	-151.710159	915.281250	-125.739098	-158.610733	906.407959	-377.068695	-352.132080	953.510986	-242.300125	-368.545288	1203.526367	-234.666519	-71.263695	1133.663452	-248.783768	-269.240295	554.237976	-43.253288	-273.453918	456.108795	-85.321106	-302.567596	301.110168	-12.113682	-311.762054	68.710365	-114.720612	-357.480774	57.076916	-171.491898	-177.980759	49.965347	-132.232025	-264.813202	567.669128	-470.434326	-271.189331	473.112030	-425.248657	-309.610138	254.638412	-460.865082	-324.156525	61.951294	-379.783752	-364.696533	51.421818	-325.645966	-185.020157	40.661133	-379.981506
63	0.62000000	-246.312805	1369.499390	-56.178650	-273.573669	1366.965088	-426.629456	-298.520081	1437.912598	-229.492477	-158.764496	1356.363770	-245.147491	-273.402313	1037.266235	52.062351	-307.229797	1049.803711	-527.692932	-202.191978	800.624023	72.122789	-237.272537	805.246490	-571.525421	-151.292496	915.401184	-125.603401	-158.487625	906.412292	-377.129456	-352.028778	953.467224	-242.339783	-368.591217	1203.412720	-234.740280	-71.414856	1133.618652	-248.854507	-269.327881	554.315735	-43.163120	-273.497375	456.162384	-85.268501	-302.531403	301.067505	-12.136352	-311.734192	68.686508	-114.738472	-357.473083	57.130116	-171.487305	-177.982697	49.957657	-132.232391	-264.812531	567.670776	-470.420807	-271.193207	473.055328	-425.266876	-309.459534	254.667419	-460.998657	-324.150482	61.922016	-379.789429	-364.712769	51.388802	-325.629913	-185.023682	40.693024	-379.972748
64	0.63000000	-246.504532	1369.416626	-56.274509	-273.750000	1366.798584	-426.739929	-298.715637	1437.843262	-229.595612	-158.783386	1356.314941	-245.199387	-273.694885	1037.184082	51.910366	-307.576996	1049.578003	-527.547485	-202.245300	800.502869	71.948814	-237.396950	805.189148	-571.087982	-151.031006	915.474670	-125.493362	-158.570053	906.416077	-377.205261	-352.158417	953.484131	-242.365082	-368.606079	1203.357178	-234.874573	-71.503387	1133.690063	-248.903473	-269.327087	554.607727	-43.052971	-273.359833	456.142029	-85.383919	-302.459473	301.158478	-12.142565	-311.251678	68.582123	-114.947266	-357.453125	57.084999	-171.496613	-177.961349	50.000706	-132.233536	-264.736023	567.651733	-470.475464	-271.043518	473.014191	-425.254852	-309.533264	254.613907	-460.885925	-324.145966	61.913097	-379.787201	-364.725311	51.284092	-325.551941	-185.015015	40.648930	-379.972351
65	0.64000000	-246.613358	1369.407227	-56.323021	-274.146057	1366.545654	-426.894897	-298.907043	1437.742432	-229.703979	-158.879562	1356.300537	-245.273010	-273.854553	1037.084473	51.756382	-307.965302	1049.455933	-527.484497	-202.292786	800.446960	71.788130	-237.725235	805.080994	-570.784454	-150.962769	915.524658	-125.475777	-158.507858	906.448303	-377.164551	-352.101776	953.481567	-242.425385	-368.748108	1203.364014	-234.891068	-71.683167	1133.693848	-248.899353	-269.342163	554.653992	-43.024624	-273.300110	456.116882	-85.423470	-302.501221	301.123993	-12.154938	-311.675751	68.638168	-114.726646	-357.458282	57.092308	-171.488937	-177.887421	50.045761	-132.277893	-264.634918	567.700806	-470.458740	-271.016022	472.993683	-425.241699	-309.396973	254.659912	-461.014648	-324.070496	61.890362	-379.763763	-364.713013	51.380245	-325.623688	-185.053986	40.656303	-380.031342
66	0.65000000	-246.747818	1369.332031	-56.380257	-274.371979	1366.452515	-426.971497	-299.140045	1437.693848	-229.679764	-159.043732	1356.290894	-245.319687	-273.962097	1037.115967	51.702496	-308.257446	1049.322266	-527.405273	-202.319099	800.412994	71.511057	-237.833115	804.918182	-570.639099	-151.153519	915.514709	-125.432236	-158.479218	906.444153	-377.154541	-352.145355	953.410706	-242.395218	-368.866760	1203.231567	-234.940460	-71.702751	1133.730103	-248.872070	-269.356323	554.698730	-43.015774	-273.299347	456.058929	-85.439102	-302.539276	301.082611	-12.128975	-311.766876	68.674942	-114.688164	-357.426636	57.062859	-171.442291	-177.948242	50.037739	-132.262863	-264.624084	567.695312	-470.456268	-271.151215	472.953552	-425.365723	-309.344604	254.650452	-461.065430	-324.141785	61.882130	-379.811310	-364.657135	51.386421	-325.659485	-185.069214	40.696022	-380.009033
67	0.66000000	-246.890015	1369.336182	-56.397869	-274.394989	1366.505493	-426.847351	-299.422760	1437.610718	-229.705399	-159.340561	1356.175537	-245.326797	-274.364624	1037.105591	51.643105	-308.599579	1049.208374	-527.419250	-203.169846	800.230408	71.084614	-237.871475	804.839111	-570.613739	-151.379852	915.452515	-125.485901	-158.638718	906.316772	-377.059479	-352.138245	953.350647	-242.390762	-368.925018	1203.143311	-235.010406	-71.741882	1133.890381	-248.946686	-269.364349	554.669739	-43.013531	-273.300598	456.126190	-85.429092	-302.468475	301.124451	-12.158861	-311.821228	68.697586	-114.690559	-357.502075	57.077671	-171.452286	-177.944931	49.995144	-132.246460	-264.564209	567.642029	-470.497925	-270.954956	473.023132	-425.362000	-309.368408	254.600723	-461.029663	-324.219360	61.878910	-379.762390	-364.723602	51.273186	-325.552704	-185.052628	40.611401	-379.967560
68	0.67000000	-247.137939	1369.303833	-56.446026	-274.690002	1366.465942	-426.838715	-299.646729	1437.555176	-229.763412	-159.561630	1356.179077	-245.458817	-274.373840	1036.967285	51.462269	-308.746521	1049.134644	-527.451355	-204.158600	799.925812	70.665789	-237.963875	804.727661	-570.666290	-151.539734	915.490601	-125.573952	-158.622452	906.479675	-377.219391	-352.111298	953.198853	-242.441895	-368.976959	1203.034790	-234.985352	-71.851639	1133.899902	-248.994568	-269.400604	554.702087	-43.000889	-273.306641	456.136383	-85.424507	-302.485626	301.053528	-12.158201	-311.751556	68.631424	-114.715454	-357.581451	57.132706	-171.467484	-177.951324	50.021175	-132.256210	-264.561005	567.655762	-470.516876	-270.925079	473.016602	-425.326691	-309.295349	254.650070	-461.084015	-324.159973	61.900085	-379.790771	-364.715607	51.295918	-325.554932	-185.035904	40.600666	-379.962189
69	0.68000000	-247.201630	1369.311890	-56.440487	-275.029053	1366.491455	-426.913727	-299.844391	1437.465332	-229.776443	-159.651627	1356.231201	-245.552109	-274.385925	1036.907593	51.386749	-309.043976	1049.122437	-527.479492	-204.967903	799.685425	70.341274	-237.839630	804.690430	-570.761078	-151.713638	915.492188	-125.538971	-158.569427	906.482666	-377.169128	-352.183899	953.239075	-242.481354	-369.130341	1202.979248	-234.960846	-72.005775	1134.002197	-248.988190	-269.314026	554.322388	-43.188126	-273.344238	456.047333	-85.394852	-302.446808	301.007599	-12.192651	-311.337219	68.541962	-114.902573	-357.554688	57.103340	-171.445221	-177.979004	49.971024	-132.255325	-264.479523	567.609680	-470.496979	-270.846588	472.980530	-425.245392	-309.285583	254.619232	-461.054749	-324.148895	61.911072	-379.790833	-364.647278	51.396061	-325.587555	-185.005753	40.646145	-379.986145
70	0.69000000	-247.347473	1369.239014	-56.468758	-275.416840	1366.436279	-426.806366	-300.154755	1437.363037	-229.762482	-159.743378	1356.228271	-245.596878	-274.585663	1036.844360	51.277657	-309.280060	1049.061157	-527.450134	-205.414711	799.519623	70.110682	-237.781090	804.631256	-570.825562	-151.779984	915.504211	-125.540405	-158.623871	906.430786	-377.052155	-352.178986	953.205444	-242.506531	-369.239014	1202.935181	-234.898712	-72.000565	1134.078247	-249.022842	-269.167084	554.195190	-43.216446	-273.343994	456.048828	-85.402084	-302.529633	301.055359	-12.204251	-311.665680	68.633148	-114.748993	-357.547485	57.097343	-171.444534	-177.963837	50.001823	-132.229324	-264.500275	567.562683	-470.419403	-270.860901	472.988403	-425.247253	-309.353088	254.610245	-460.888824	-324.155853	61.893677	-379.807129	-364.691772	51.423378	-325.645416	-185.046463	40.609684	-379.958374
